<?xml version="1.0"?><svg width="640" height="480" xmlns="http://www.w3.org/2000/svg" xmlns:xlink="http://www.w3.org/1999/xlink">
 <title>Red Car - Top View</title>
 <defs>
  <linearGradient id="linearGradient3759">
   <stop offset="0" stop-color="#1a1a1a" id="stop3761"/>
   <stop offset="1" stop-opacity="0" stop-color="#f30000" id="stop3763"/>
  </linearGradient>
  <linearGradient xlink:href="#linearGradient3759" y2="19.5928" x2="13.6771" y1="19.872" x1="14.659" gradientTransform="translate(8.30851 -2.65177)" id="linearGradient4149"/>
  <linearGradient xlink:href="#linearGradient3759" y2="22.1207" x2="13.5975" y1="22.2672" x1="16.4702" gradientTransform="matrix(0.893322 0 0 0.893322 80.3489 365.146)" id="linearGradient4153"/>
  <linearGradient xlink:href="#linearGradient3759" y2="19.5948" x2="12.7332" y1="19.7995" x1="15.4496" gradientTransform="translate(27.6247 296.492)" id="linearGradient4155"/>
  <linearGradient xlink:href="#linearGradient3759" y2="17.0032" x2="13.6771" y1="16.724" x1="14.659" gradientTransform="matrix(1 0 0 -1 8.30851 1452.04)" id="linearGradient4185"/>
  <linearGradient xlink:href="#linearGradient3759" y2="17.1095" x2="15.1918" y1="17.1119" x1="15.6903" gradientTransform="matrix(1 0 0 -1 21.4375 1151.48)" id="linearGradient4187"/>
  <linearGradient xlink:href="#linearGradient3759" y2="17.0009" x2="12.7332" y1="16.7962" x1="15.4496" gradientTransform="matrix(1 0 0 -1 27.6247 1152.89)" id="linearGradient4189"/>
  <linearGradient xlink:href="#linearGradient3759" y2="12.6782" x2="7.27452" y1="12.4872" x1="7.53164" gradientTransform="matrix(1 0 0 -1 21.4375 1151.48)" id="linearGradient4191"/>
  <linearGradient xlink:href="#linearGradient3759" y2="13.6108" x2="6.36224" y1="12.2247" x1="7.21631" gradientTransform="matrix(1 0 0 -1 21.4375 1151.48)" id="linearGradient4193"/>
  <linearGradient xlink:href="#linearGradient3759" y2="18.9233" x2="13.5526" y1="18.9691" x1="17.0547" gradientTransform="matrix(0.893322 0 0 -0.893322 94.1564 1087.81)" id="linearGradient4195"/>
  <linearGradient xlink:href="#linearGradient3759" y2="18.7261" x2="13.5975" y1="18.5796" x1="16.4702" gradientTransform="matrix(0.893322 0 0 -0.893322 80.3489 1084.24)" id="linearGradient4197"/>
  <linearGradient xlink:href="#linearGradient3759" y2="24.8782" x2="5.28676" y1="24.3954" x1="6.88414" gradientTransform="matrix(0.990434 -0.137987 -0.137987 -0.990434 146.047 1483.27)" id="linearGradient4199"/>
  <linearGradient xlink:href="#linearGradient3759" y2="27.0152" x2="6.1095" y1="26.8031" x1="7.70684" gradientTransform="matrix(0.990434 -0.137987 -0.137987 -0.990434 156.309 1481.99)" id="linearGradient4201"/>
  <linearGradient xlink:href="#linearGradient3759" y2="19.4864" x2="15.1918" y1="19.4841" x1="15.6903" gradientTransform="translate(21.4375 297.907)" id="linearGradient4203"/>
  <linearGradient xlink:href="#linearGradient3759" y2="14.7579" x2="7.27452" y1="14.9489" x1="7.53164" gradientTransform="translate(21.4375 297.907)" id="linearGradient4205"/>
  <linearGradient xlink:href="#linearGradient3759" y2="13.8253" x2="6.36224" y1="15.2114" x1="7.21631" gradientTransform="translate(21.4375 297.907)" id="linearGradient4207"/>
  <linearGradient xlink:href="#linearGradient3759" y2="21.9234" x2="13.5526" y1="21.8776" x1="17.0547" gradientTransform="matrix(0.893322 0 0 0.893322 94.1564 361.573)" id="linearGradient4209"/>
  <linearGradient xlink:href="#linearGradient3759" y2="29.8507" x2="5.28676" y1="30.3335" x1="6.88414" gradientTransform="matrix(0.990434 0.137987 -0.137987 0.990434 146.047 -33.8847)" id="linearGradient4211"/>
  <linearGradient xlink:href="#linearGradient3759" y2="33.2566" x2="6.1095" y1="33.4687" x1="7.70684" gradientTransform="matrix(0.990434 0.137987 -0.137987 0.990434 156.309 -32.6026)" id="linearGradient4213"/>
 </defs>
 <g>
  <title>Layer 1</title>
  <g transform="rotate(-90.312 323.116 310.613)" display="inline" id="layer1">
   <g id="g3890">
    <path d="m371.687988,165.998291c-0.944,0.005615 -2.954987,0.190918 -4.048981,0.586914l-2.19101,0.938995l5.419006,22.497803l-78.136993,0.177002c-1.525024,0.002991 -3.059998,-0.009003 -4.597015,-0.020004c-3.074982,-0.020996 -6.175995,-0.065002 -9.292999,-0.137009c-4.565002,-0.104996 -9.182983,-0.257996 -13.811981,-0.449982c-0.247009,-0.01001 -0.495026,-0.029007 -0.743011,-0.039001c-9.347992,-0.395004 -18.786011,-0.934006 -28.19101,-1.526001c-12.724991,-0.803009 -25.366989,-1.695007 -37.639999,-2.42601c-9.095001,-0.542007 -17.987,-0.988998 -26.528,-1.251999c-5.86499,-0.181 -11.55899,-0.285995 -17.05899,-0.253998c-2.702011,0.014999 -5.363998,0.057999 -7.962997,0.137009c-2.598007,0.077988 -5.246002,0.222 -7.923004,0.41098c-1.337997,0.094009 -2.678009,0.194016 -4.029999,0.313004c-4.050003,0.354996 -8.167007,0.827011 -12.266006,1.369003c-0.007004,0.000992 -0.013,-0.000992 -0.020004,0c-2.737,0.362 -5.457993,0.767014 -8.176987,1.192993c-2.720001,0.427017 -5.430008,0.875 -8.100006,1.350006c-2.663002,0.474014 -5.302002,0.979996 -7.884003,1.487015c-0.005997,0.000992 -0.013,-0.001007 -0.018997,0c-1.293999,0.253998 -2.548004,0.503998 -3.815002,0.762985c-3.794998,0.776993 -7.471001,1.574997 -10.956001,2.367004c-0.005997,0.001999 -0.013,-0.000992 -0.018997,0c-2.327003,0.529007 -4.562202,1.048996 -6.710297,1.565002c-4.297005,1.031998 -8.210701,2.024994 -11.601204,2.914993c-5.085602,1.335007 -9.003899,2.459 -11.327202,3.130997c-1.548599,0.448013 -2.386795,0.70401 -2.386795,0.70401l-8.568703,2.347c-0.564999,0.155991 -1.113201,0.43399 -1.643398,0.821991c-0.180099,0.132004 -0.352001,0.27301 -0.528202,0.431c-0.6884,0.613007 -1.3466,1.421005 -1.975899,2.406006c-0.002899,0.003998 0.002899,0.014999 0,0.018997c-0.313202,0.492004 -0.640099,1.027008 -0.938999,1.604996c-0.002701,0.005005 0.002598,0.014008 0,0.019012c-0.299,0.577988 -0.595501,1.19899 -0.880402,1.858994c-0.0023,0.005005 0.0023,0.014008 0,0.018997c-2.2957,5.327011 -4.144402,13.229004 -5.5951,22.675003c-0.000999,0.005997 0.0009,0.013 0,0.018997c-0.022499,0.147003 -0.0364,0.303009 -0.058701,0.449997c-0.315899,2.086014 -0.621098,4.256012 -0.899899,6.476013c-0.0191,0.151001 -0.039799,0.296997 -0.058701,0.449997c-0.313999,2.530991 -0.592701,5.134995 -0.860798,7.804993c-0.000702,0.007004 0.000599,0.014008 0,0.020004c-0.133701,1.332001 -0.268703,2.688995 -0.3913,4.050003c-0.000603,0.005997 0.000599,0.013 0,0.018997c-0.122601,1.360992 -0.240402,2.723007 -0.3521,4.108994c-0.000603,0.006012 0.0005,0.013 0,0.019012c-0.224003,2.778015 -0.424603,5.599976 -0.606503,8.451996c-0.000401,0.006012 0.000401,0.013 0,0.019012c-0.546299,8.566986 -0.913799,17.396973 -1.115097,26.019989c-0.000202,0.006012 0.000099,0.013 0,0.019012c-0.1343,5.752991 -0.195702,11.401978 -0.195702,16.844971c0,0.606018 0.0172,1.229004 0.019501,1.83902c-0.0023,0.610016 -0.019501,1.233002 -0.019501,1.838989c0,5.441986 0.061401,11.091003 0.195599,16.843994c0.000202,0.007019 -0.000099,0.013 0,0.02002c0.201401,8.622986 0.568901,17.453003 1.115101,26.018982c0.000401,0.007019 -0.000401,0.013 0,0.02002c0.1819,2.850983 0.3825,5.673004 0.606499,8.450989c0.000504,0.006989 -0.0005,0.014008 0,0.019989c0.111702,1.38501 0.229603,2.747009 0.3521,4.108002c0.000603,0.007019 -0.0005,0.013 0,0.02002c0.1227,1.360992 0.257603,2.71698 0.3913,4.048981c0.000603,0.007019 -0.000599,0.014008 0,0.02002c0.268101,2.67099 0.546803,5.274994 0.860802,7.806c0.018898,0.151978 0.0396,0.298004 0.058701,0.449982c0.2789,2.218994 0.584,4.390015 0.899899,6.475006c0.022301,0.14801 0.036201,0.304016 0.058701,0.450012c0.0009,0.006989 -0.0009,0.013977 0,0.019989c1.450798,9.445007 3.2995,17.347015 5.5952,22.674011c0.0023,0.005981 -0.002399,0.013977 0,0.019989c0.284901,0.660004 0.581299,1.279999 0.880299,1.858002c0.002602,0.005005 -0.002598,0.014984 0,0.019989c0.298901,0.576996 0.625801,1.113007 0.939003,1.604004c0.002899,0.003998 -0.0028,0.015015 0,0.019012c0.629398,0.984985 1.287598,1.794006 1.975899,2.406982c0.176201,0.157013 0.348099,0.298004 0.528301,0.430023c0.530098,0.388 1.0784,0.665985 1.643299,0.821991l8.568802,2.347992c0,0 0.838097,0.256012 2.386696,0.70401c2.323303,0.67099 6.2416,1.794983 11.327301,3.130005c3.390404,0.889984 7.3041,1.882996 11.601097,2.914978c2.148201,0.516022 4.3834,1.036011 6.710403,1.565002c0.005997,0.001007 0.013,-0.000977 0.018997,0c3.485001,0.792023 7.161003,1.589996 10.956001,2.367004c1.266998,0.26001 2.521004,0.509003 3.815002,0.763c0.005997,0.002014 0.013,-0.001007 0.018997,0c2.582001,0.507019 5.221001,1.013 7.884003,1.487c2.669998,0.475006 5.380005,0.924011 8.100006,1.350006c2.718994,0.425995 5.439987,0.830994 8.176987,1.192993c0.007004,0.001007 0.013,0 0.020004,0c4.098999,0.542999 8.216003,1.014008 12.266006,1.369995c1.35199,0.119019 2.692001,0.219025 4.029999,0.313019c2.677002,0.187988 5.324997,0.332001 7.923004,0.41098c2.598999,0.078003 5.260986,0.121002 7.962997,0.137024c5.5,0.030975 11.192993,-0.074005 17.05899,-0.255005c8.541,-0.263 17.432999,-0.710022 26.528,-1.252014c12.27301,-0.730988 24.915009,-1.622986 37.639999,-2.425995c9.404999,-0.59201 18.843018,-1.131012 28.19101,-1.526001c0.247986,-0.01001 0.496002,-0.027985 0.743011,-0.039001c4.628998,-0.19101 9.246979,-0.345001 13.811981,-0.449982c3.117004,-0.071014 6.218018,-0.115021 9.292999,-0.137024c1.537018,-0.009979 3.071991,-0.02298 4.597015,-0.018982l78.136993,0.175995l-5.419006,22.497986l2.19101,0.939026c1.093994,0.395996 3.10498,0.580994 4.048981,0.586975c0.532013,0.003021 1.098999,-0.04599 1.683014,-0.155975c0.194,-0.037018 0.389984,-0.08902 0.587006,-0.137024c0.190002,-0.048004 0.395996,-0.097992 0.587006,-0.156982c0.392975,-0.121002 0.790985,-0.264008 1.172974,-0.430023c1.141022,-0.496979 2.213013,-1.208984 2.994019,-2.073975c0.005981,-0.007019 0.013,-0.013 0.018982,-0.02002c0.391022,-0.436005 0.696014,-0.90799 0.920013,-1.427979l7.609985,-19.603027l68.824005,0.157013c0.468018,0.234009 0.924011,0.466003 1.389008,0.684998c1.86499,0.876007 3.700989,1.626007 5.536011,2.269012c0.915985,0.320984 1.826996,0.610992 2.738983,0.880005c3.192993,0.944 6.378021,1.597992 9.606018,2.034973c1.843994,0.25 3.709991,0.434021 5.595001,0.567017c0.942993,0.066986 1.899994,0.113007 2.855988,0.156982c1.914001,0.088013 3.842987,0.133026 5.829987,0.156006c3.973999,0.046997 8.126038,0 12.520996,0c6.517029,0 12.722046,-0.332001 18.644043,-0.977997c2.368958,-0.257996 4.690002,-0.561981 6.964966,-0.919006c4.549011,-0.714996 8.906982,-1.639984 13.087036,-2.738983c1.045959,-0.274994 2.088989,-0.563019 3.110962,-0.860992c3.067017,-0.894012 6.018005,-1.894012 8.882019,-2.993011c0.953979,-0.367004 1.903992,-0.72699 2.836975,-1.11499c1.864014,-0.778015 3.682007,-1.601013 5.458008,-2.464996c0.888,-0.432007 1.775024,-0.877014 2.640991,-1.331024c1.731995,-0.906982 3.421997,-1.86499 5.067017,-2.855988c0.822021,-0.494995 1.625,-1.01001 2.426025,-1.526001c4.002991,-2.57901 7.738953,-5.399994 11.208984,-8.471008c2.77301,-2.453979 5.38501,-5.057983 7.825989,-7.806c0.002991,-0.003998 -0.002991,-0.015991 0,-0.018982c0.606995,-0.684998 1.211975,-1.372009 1.799988,-2.074005c0.002991,-0.003998 -0.002991,-0.015991 0,-0.02002c0.587036,-0.700989 1.174011,-1.412994 1.741028,-2.131989c0.002991,-0.003998 -0.002991,-0.015991 0,-0.019989c1.705994,-2.165009 3.325989,-4.394012 4.85199,-6.710022c0.002991,-0.003998 -0.004028,-0.014984 0,-0.019989c0.505981,-0.769012 1.018982,-1.541992 1.505981,-2.328003c0.002991,-0.005005 -0.002991,-0.014008 0,-0.018982c1.465027,-2.365021 2.859009,-4.791016 4.147034,-7.297028c0.002991,-0.004974 -0.002014,-0.014984 0,-0.019989c0.427979,-0.832001 0.843994,-1.675995 1.252991,-2.523987c0.002014,-0.005005 -0.002991,-0.014008 0,-0.019012c0.40802,-0.846985 0.822998,-1.700989 1.211975,-2.562988c0.002991,-0.006012 -0.002014,-0.014008 0,-0.019012c0.781006,-1.730011 1.527039,-3.475983 2.231018,-5.263c0.002014,-0.005981 -0.002991,-0.014008 0,-0.019989c0.349976,-0.890015 0.684998,-1.795013 1.016968,-2.699005c0.002014,-0.006012 -0.001953,-0.014008 0,-0.019989c0.332031,-0.904999 0.665039,-1.820007 0.978027,-2.739014c0.312988,-0.917999 0.625,-1.846008 0.919983,-2.777985c0.002014,-0.006012 -0.001953,-0.014008 0,-0.019012c0.294006,-0.932007 0.585022,-1.873016 0.861023,-2.817993c0.000977,-0.006012 -0.002014,-0.013 0,-0.019012c0.275024,-0.945007 0.544006,-1.898987 0.802002,-2.855988c0.000977,-0.007019 -0.002014,-0.014008 0,-0.02002c0.775024,-2.885986 1.481995,-5.825989 2.093018,-8.822998l0,-0.019989c0.201965,-0.994995 0.382996,-2.006012 0.566956,-3.011993l0,-0.02002c1.299011,-7.085999 2.16803,-14.437988 2.602051,-22.047974c0.000977,-0.007019 0,-0.013031 0,-0.02002c0.061951,-1.082001 0.112,-2.175995 0.156982,-3.266998c0,-0.005981 -0.001038,-0.013 0,-0.018982c0.088989,-2.190002 0.153992,-4.387024 0.175964,-6.613037c0,-0.005981 0,-0.013 0,-0.018982c0.01001,-1.117004 0.006042,-2.23999 0,-3.36499c0,-0.39801 -0.013977,-0.796021 -0.019958,-1.194c0.006958,-0.397003 0.019958,-0.795013 0.019958,-1.193024c0.006042,-1.125 0.01001,-2.248962 0,-3.36499c0,-0.006989 0,-0.013 0,-0.019989c-0.021973,-2.225006 -0.086975,-4.423004 -0.175964,-6.612c-0.001038,-0.006989 0,-0.013 0,-0.019989c-0.044983,-1.091003 -0.095032,-2.184998 -0.156982,-3.267029c0,-0.005981 0.000977,-0.013 0,-0.018982c-0.434021,-7.610992 -1.30304,-14.963013 -2.602051,-22.049011l0,-0.018982c-0.18396,-1.007019 -0.36499,-2.018005 -0.566956,-3.013l0,-0.019012c-0.611023,-2.998016 -1.317993,-5.938019 -2.093018,-8.824005c-0.002014,-0.005981 0.000977,-0.013 0,-0.018982c-0.257996,-0.958008 -0.526978,-1.911011 -0.802002,-2.856018c-0.002014,-0.006989 0.000977,-0.013977 0,-0.019989c-0.276001,-0.945007 -0.567017,-1.88501 -0.861023,-2.816986c-0.001953,-0.006012 0.002014,-0.014038 0,-0.02002c-0.294983,-0.931992 -0.606995,-1.858994 -0.919983,-2.778c-0.312988,-0.917999 -0.645996,-1.834 -0.978027,-2.738998c-0.001953,-0.005005 0.002014,-0.014008 0,-0.018997c-0.33197,-0.904999 -0.666992,-1.809006 -1.016968,-2.699997c-0.002991,-0.006012 0.002014,-0.014008 0,-0.020004c-0.703979,-1.787003 -1.450012,-3.533005 -2.231018,-5.262009c-0.002014,-0.00499 0.002991,-0.013992 0,-0.019989c-0.388977,-0.862 -0.803955,-1.715012 -1.211975,-2.562012c-0.002991,-0.005997 0.002014,-0.014999 0,-0.019989c-0.408997,-0.847 -0.825012,-1.692001 -1.252991,-2.524002c-0.002014,-0.005005 0.002991,-0.014008 0,-0.018997c-1.288025,-2.507004 -2.682007,-4.932007 -4.147034,-7.298004c-0.002991,-0.003998 0.002991,-0.014008 0,-0.018997c-0.487,-0.785004 -1,-1.559006 -1.505981,-2.328003c-0.004028,-0.005005 0.002991,-0.014999 0,-0.020004c-1.526001,-2.315994 -3.145996,-4.544998 -4.85199,-6.709991c-0.002991,-0.003998 0.002991,-0.016006 0,-0.018997c-0.567017,-0.719009 -1.153992,-1.431 -1.741028,-2.133011c-0.002991,-0.003998 0.002991,-0.015991 0,-0.018997c-0.588013,-0.701996 -1.192993,-1.389999 -1.799988,-2.074005c-0.002991,-0.003998 0.002991,-0.015991 0,-0.019989c-2.440979,-2.747009 -5.052979,-5.352005 -7.825989,-7.806c-3.470032,-3.070999 -7.205994,-5.891006 -11.208984,-8.471008c-0.801025,-0.515991 -1.604004,-1.029999 -2.426025,-1.525986c-1.64502,-0.990005 -3.335022,-1.949005 -5.067017,-2.856018c-0.865967,-0.453003 -1.752991,-0.897995 -2.640991,-1.330002c-1.776001,-0.86499 -3.593994,-1.687988 -5.458008,-2.464981c-0.932983,-0.389008 -1.882996,-0.749008 -2.836975,-1.115021c-2.864014,-1.099991 -5.815002,-2.098984 -8.882019,-2.993988c-1.021973,-0.298004 -2.065002,-0.585999 -3.110962,-0.860001c-4.180054,-1.099991 -8.538025,-2.024002 -13.087036,-2.738998c-2.274963,-0.358002 -4.596008,-0.662003 -6.964966,-0.920013c-5.921021,-0.645996 -12.127014,-0.978989 -18.644043,-0.978989c-4.394958,0 -8.546997,-0.046005 -12.520996,0c-1.985992,0.022995 -3.915985,0.069 -5.828979,0.156998c-0.957001,0.042999 -1.914001,0.090012 -2.856995,0.156006c-1.88501,0.132996 -3.75,0.317993 -5.595001,0.567993c-3.22702,0.436996 -6.413025,1.089996 -9.606018,2.034012c-0.911987,0.269989 -1.822998,0.559982 -2.738007,0.87999c-1.835999,0.644012 -3.671997,1.394012 -5.536987,2.270004c-0.464996,0.218002 -0.92099,0.451004 -1.389008,0.684998l-68.824005,0.156006l-7.609985,-19.602707c-0.222992,-0.519592 -0.528992,-0.991196 -0.920013,-1.428101c-0.005981,-0.006592 -0.013,-0.012909 -0.018982,-0.019592c-0.781006,-0.864609 -1.852997,-1.576904 -2.993011,-2.0737c-0.382996,-0.166504 -0.781006,-0.309509 -1.173981,-0.430405c-0.19101,-0.058395 -0.397003,-0.109207 -0.587006,-0.156509c-0.197021,-0.048691 -0.393005,-0.100281 -0.587006,-0.136993c-0.584015,-0.110107 -1.151001,-0.159607 -1.683014,-0.156494l0,-0.000214z" stroke-width="14" stroke-miterlimit="4" stroke="#191919" fill-opacity="0.996078" fill="#000000" id="path3855"/>
    <path d="m371.687988,165.998291c-0.944,0.005615 -2.954987,0.19162 -4.048981,0.586914l-2.19101,0.938995l5.419006,22.439789l-78.136993,0.17601c-48.807007,0.102997 -104.249008,-7.201996 -145.826004,-5.947998c-41.576004,1.25499 -95.234505,17.529999 -95.234505,17.529999l-8.568802,2.367004c-12.052002,3.315002 -16.1007,60.955002 -16.1007,104.410995c0,0.697021 0.016602,1.411011 0.019501,2.113007c-0.002899,0.701996 -0.019501,1.415985 -0.019501,2.113007c0,43.455994 4.048698,101.095001 16.1007,104.41098l8.568802,2.367004c0,0 53.658501,16.274994 95.234505,17.528992c41.576996,1.255005 97.018997,-6.050995 145.826004,-5.946991l78.136993,0.175995l-5.419006,22.440002l2.19101,0.938995c1.093994,0.39502 3.10498,0.580994 4.048981,0.585999c0.532013,0.003998 1.098999,-0.04599 1.683014,-0.155975c0.194,-0.037018 0.389984,-0.088013 0.587006,-0.137024c0.190002,-0.046997 0.395996,-0.097992 0.587006,-0.156982c0.392975,-0.119995 0.790985,-0.264008 1.173981,-0.430023c1.140015,-0.495972 2.212006,-1.190979 2.993011,-2.053986c0.005981,-0.006989 0.013,-0.013 0.018982,-0.019989c0.391022,-0.436005 0.697021,-0.908997 0.920013,-1.428009l7.609985,-19.562988l68.824005,0.155975c14.963013,7.476013 28.492004,6.710022 46.071991,6.710022c83.419006,0 117.460999,-54.206024 117.067993,-126.067993c0,-0.488037 -0.011963,-0.980011 -0.019958,-1.46701c0.007996,-0.487 0.019958,-0.979004 0.019958,-1.46701c0.393005,-71.862 -33.648987,-126.069 -117.067993,-126.069c-17.579987,0 -31.108978,-0.766006 -46.071991,6.710999l-68.824005,0.156006l-7.609985,-19.5634c-0.222992,-0.5186 -0.528992,-0.992111 -0.920013,-1.428207c-0.005981,-0.0065 -0.013,-0.012787 -0.018982,-0.019501c-0.781006,-0.862991 -1.852997,-1.558289 -2.993011,-2.054199c-0.382996,-0.166092 -0.781006,-0.309692 -1.173981,-0.430389c-0.19101,-0.058304 -0.397003,-0.109314 -0.587006,-0.156494c-0.197021,-0.048615 -0.393005,-0.100311 -0.587006,-0.136902c-0.584015,-0.109909 -1.151001,-0.159698 -1.683014,-0.156509l0,-0.000107l0,0z" fill-opacity="0.996078" fill="#ca0000" id="path2853"/>
    <path d="m240.105011,392.338013c-20.887009,0 -40.88501,1.126984 -59.356018,3.168976c16.065002,30.497009 61.343018,18.947021 128.688995,19.740021c31.105011,0.365997 56.057007,1.175995 76.082001,1.487c-29.523987,-14.608002 -83.592987,-24.395996 -145.414978,-24.395996z" fill-opacity="0.996078" fill="#262626" opacity="0.9" id="path3643"/>
    <path d="m240.105011,392.338013c-2.007019,0 -3.996002,0.017975 -5.987015,0.039001c0.513,10.123993 4.025009,18.941986 9.137009,24.317993c2.923981,-0.048004 5.944,-0.123016 9.037994,-0.216003c-5.363007,-5.127991 -9.135986,-13.915009 -9.841003,-24.140991c-0.78299,-0.003021 -1.561005,0 -2.346985,0z" fill-opacity="0.996078" fill="#000000" opacity="0.5" id="path3658"/>
    <path d="m608.640991,374.973999l-3.188965,0.371002c-13.488037,1.572998 -23.594055,16.264008 -24.591003,34.139008l-0.235046,4.460999l3.287048,-3.03302c9.94696,-9.190002 17.718994,-20.350983 23.416992,-33.02298l1.310974,-2.915009z" stroke-width="5" stroke-miterlimit="4" stroke="#191919" fill-rule="nonzero" fill="#212121" id="path3707"/>
    <path d="m479.960999,381.859009c0,0 49.880981,-14.145996 65.970032,-20.022003c16.801941,-6.136017 61.888977,-24.506012 61.888977,-24.506012c0,0 -5.471985,26.587006 -19.083008,36.257996c-48.344971,34.351013 -145.670013,33.714996 -145.670013,33.714996" stroke-width="6" stroke-miterlimit="4" stroke-linejoin="round" stroke-linecap="round" stroke="#292929" fill="none" opacity="0.5" id="path3715"/>
    <path d="m534.109985,368.924988l-2.778015,1.46701c0.620056,0.723999 1.124023,1.520996 1.487,2.407013c3.004028,7.334991 -6.720947,18.302002 -16.823975,22.399994c-0.323975,0.130981 -1.13501,0.526001 -2.132996,1.036987l8.530029,-2.425995c10.833984,-5.294983 17.19696,-14.450012 14.398987,-21.285004c-0.574036,-1.401001 -1.487,-2.608002 -2.68103,-3.600006l0,0z" fill="url(#linearGradient4149)" id="path3757"/>
    <path d="m539.484009,366.131989l-2.778015,1.46701c0.619995,0.725006 1.124023,1.520996 1.487,2.407013c3.004028,7.334991 -6.721008,18.302979 -16.823975,22.399994c-0.324036,0.130981 -1.13501,0.526001 -2.132996,1.036987l8.529968,-2.425995c10.833984,-5.295013 17.197021,-14.450012 14.398987,-21.285004c-0.573975,-1.401001 -1.487,-2.608002 -2.680969,-3.600006l0,0z" fill="url(#linearGradient4203)" id="path3787"/>
    <path d="m543.357971,365.247009l-2.777954,1.46698c0.618958,0.723999 1.123962,1.52002 1.487,2.406006c3.002991,7.335999 -6.722046,18.303009 -16.825012,22.401001c-0.323975,0.131012 -1.13501,0.526001 -2.132019,1.037018l8.528992,-2.426025c10.834045,-5.294983 17.197998,-14.449982 14.399048,-21.28598c-0.574036,-1.399994 -1.487,-2.608002 -2.680054,-3.598999l0,0z" fill="url(#linearGradient4155)" id="path3752"/>
    <path d="m553.942017,362.571991l-3.874023,1.154022c0.601013,1.071991 1.036011,2.210999 1.272034,3.422974c1.953003,10.038025 -13.123047,21.463013 -26.939026,24.103027c-2.125,0.405975 -18.083008,5.368988 -20.132019,5.511993l0,2.582001l25.942017,-7.605011c16.455994,-3.44101 28.140015,-14.053009 26.215027,-23.945984c-0.373047,-1.917023 -1.223999,-3.667999 -2.484009,-5.223022l0,0z" fill="url(#linearGradient4205)" id="path3735"/>
    <path d="m553.942017,362.571991l-3.874023,1.154022c0.601013,1.071991 1.036011,2.210999 1.272034,3.422974c1.953003,10.038025 -13.123047,21.463013 -26.939026,24.103027c-2.125,0.405975 -18.083008,5.368988 -20.132019,5.511993l0,2.582001l25.942017,-7.605011c16.455994,-3.44101 28.140015,-14.053009 26.215027,-23.945984c-0.373047,-1.917023 -1.223999,-3.667999 -2.484009,-5.223022l0,0z" fill="url(#linearGradient4207)" id="path3783"/>
    <path d="m526.067993,371.816986l-2.481995,1.311005c0.552979,0.647003 1.004028,1.358002 1.328003,2.149017c2.684021,6.552979 -6.004028,16.350983 -15.028992,20.010986c-0.289001,0.117004 -1.014038,0.470001 -1.905029,0.925995l7.619995,-2.166992c9.67804,-4.730011 15.362,-12.908997 12.862,-19.014008c-0.511963,-1.251984 -1.328003,-2.329987 -2.393982,-3.216003l0,0z" fill="url(#linearGradient4209)" id="path3799"/>
    <path d="m517.424011,374.053986l-2.481995,1.311005c0.552979,0.647003 1.003967,1.358002 1.328979,2.149017c2.682983,6.552979 -6.003967,16.350983 -15.029968,20.010986c-0.289001,0.117004 -1.014038,0.470001 -1.905029,0.925995l7.619995,-2.166992c9.677979,-4.730011 15.362976,-12.90799 12.862,-19.014008c-0.511963,-1.251984 -1.328003,-2.329987 -2.393982,-3.216003l0,0z" fill="url(#linearGradient4153)" id="path3803"/>
    <path d="m135.509995,386.381989c5.192001,-1.265991 9.695007,-0.924988 12.394012,3.623016l-1.561005,11.20401c-4.304001,3.86499 -8.608002,3.099976 -12.912003,0.097992l2.078995,-14.925018l0,0z" fill="url(#linearGradient4211)" id="rect3861"/>
    <path d="m148.203995,388.424988c5.102005,-0.756989 9.49501,-0.358002 11.796005,3.449005l-1.485992,10.662994c-4.059006,1.863007 -8.127014,3.262024 -12.289001,0.093018l1.978989,-14.205017l0,0z" fill="url(#linearGradient4213)" id="path3864"/>
    <path d="m240.105011,390.781006c-20.944016,0 -41.001007,1.119995 -59.532013,3.169983l-2.289001,0.253998l1.076004,2.034027c4.177002,7.928986 10.369003,13.217987 18.194,16.550995c7.826004,3.332977 17.261993,4.765991 28.229996,5.281982c21.937988,1.03302 50.054993,-1.647003 83.634003,-1.251984c31.088013,0.365997 56.035004,1.177002 76.082001,1.487l0.704987,-2.972992c-29.955994,-14.822021 -84.112976,-24.553009 -146.099976,-24.553009zm0,3.130005c57.074982,0 107.519989,8.437988 137.785004,21.109985c-18.751007,-0.36499 -40.825012,-1.005981 -68.433014,-1.330994c-33.765991,-0.397003 -61.962006,2.286987 -83.516006,1.272003c-10.776993,-0.507996 -19.886993,-1.944 -27.173996,-5.048004c-6.543991,-2.786987 -11.571991,-6.983002 -15.337006,-13.088013c17.721008,-1.866974 36.770004,-2.914978 56.675018,-2.914978z" stroke-width="5" fill-rule="nonzero" fill="#191919" opacity="0.9" id="path4025"/>
    <path d="m152.557999,237.171005l-48.673996,7.806c-16.997002,2.725998 -30.642403,30.533005 -31.927299,65.636002c1.284897,35.10199 14.930298,62.910004 31.927299,65.635986l48.673996,7.806c8.324005,0 15.024994,-6.700989 15.024994,-15.024994l0,-116.834c0,-8.324005 -6.700989,-15.024994 -15.024994,-15.024994l0,0z" stroke-width="5" stroke-miterlimit="4" stroke="#191919" fill-opacity="0.996078" fill="#262626" opacity="0.9" id="rect2864"/>
    <path d="m422.67099,215.748993c-1.858978,0 -3.690002,0.208008 -5.497986,0.606003c-0.006012,-0.005997 -0.013,-0.013 -0.019012,-0.018997l-39.967987,7.708008c-11.098999,4.133987 -20.03299,8.934998 -20.03299,20.03299l0,133.071991c0,11.098022 8.93399,15.89801 20.03299,20.03302l39.967987,7.708008c0.006012,-0.006012 0.013,-0.013 0.019012,-0.019012c1.807983,0.39801 3.639008,0.605988 5.497986,0.605988c28.419006,0 51.458008,-35.91098 51.529999,-94.863983c-0.071991,-58.953003 -23.110992,-94.864014 -51.529999,-94.864014l0,0z" stroke-width="5" stroke-miterlimit="4" stroke-dashoffset="0" stroke="#191919" fill-opacity="0.996078" fill="#262626" opacity="0.9" id="path3703"/>
    <path d="m240.105011,228.888c-20.887009,0 -40.88501,-1.126999 -59.356018,-3.169006c16.065002,-30.496994 61.343018,-18.947998 128.688995,-19.73999c31.105011,-0.365997 56.057007,-1.177002 76.082001,-1.487c-29.523987,14.608002 -83.592987,24.395996 -145.414978,24.395996z" fill-opacity="0.996078" fill="#262626" opacity="0.9" id="path4157"/>
    <path d="m240.105011,228.888c-2.007019,0 -3.996002,-0.018997 -5.987015,-0.039001c0.513,-10.123993 4.025009,-18.942001 9.137009,-24.317993c2.923981,0.046997 5.944,0.123001 9.037994,0.214996c-5.363007,5.128998 -9.135986,13.916 -9.841003,24.141998c-0.78299,0.003006 -1.561005,0 -2.346985,0z" fill-opacity="0.996078" fill="#000000" opacity="0.5" id="path4159"/>
    <path d="m608.640991,246.251999l-3.188965,-0.371994c-13.488037,-1.572998 -23.594055,-16.263 -24.591003,-34.138l-0.235046,-4.460999l3.287048,3.031998c9.94696,9.190994 17.718994,20.350998 23.416992,33.024002l1.310974,2.914993z" stroke-width="5" stroke-miterlimit="4" stroke="#191919" fill-rule="nonzero" fill="#212121" id="path4161"/>
    <path d="m479.960999,239.367004c0,0 49.880981,14.145996 65.970032,20.020996c16.801941,6.136993 61.888977,24.507019 61.888977,24.507019c0,0 -5.471985,-26.587036 -19.083008,-36.259018c-48.344971,-34.350006 -145.670013,-33.714005 -145.670013,-33.714005" stroke-width="6" stroke-miterlimit="4" stroke-linejoin="round" stroke-linecap="round" stroke="#292929" fill="none" opacity="0.5" id="path4163"/>
    <path d="m534.109985,252.300995l-2.778015,-1.468002c0.620056,-0.723999 1.124023,-1.519989 1.487,-2.405991c3.004028,-7.335007 -6.720947,-18.303009 -16.823975,-22.400009c-0.323975,-0.130997 -1.13501,-0.526993 -2.132996,-1.036987l8.530029,2.425995c10.833984,5.294998 17.19696,14.449997 14.398987,21.285004c-0.574036,1.401001 -1.487,2.608002 -2.68103,3.599991l0,0z" fill="url(#linearGradient4185)" id="path4165"/>
    <path d="m539.484009,255.093994l-2.778015,-1.467987c0.619995,-0.724014 1.124023,-1.520004 1.487,-2.406006c3.004028,-7.335007 -6.721008,-18.302994 -16.823975,-22.399994c-0.324036,-0.132004 -1.13501,-0.527008 -2.132996,-1.037003l8.529968,2.425995c10.833984,5.294006 17.197021,14.449997 14.398987,21.285004c-0.573975,1.401001 -1.487,2.608002 -2.680969,3.599991l0,0z" fill="url(#linearGradient4187)" id="path4167"/>
    <path d="m543.357971,255.979004l-2.777954,-1.46701c0.618958,-0.724991 1.123962,-1.520996 1.487,-2.406998c3.002991,-7.334991 -6.722046,-18.302002 -16.825012,-22.399994c-0.323975,-0.130997 -1.13501,-0.526001 -2.132019,-1.037003l8.528992,2.425995c10.834045,5.295013 17.197998,14.450012 14.399048,21.285004c-0.574036,1.401001 -1.487,2.608002 -2.680054,3.600006l0,0z" fill="url(#linearGradient4189)" id="path4169"/>
    <path d="m553.942017,258.653992l-3.874023,-1.153992c0.601013,-1.072021 1.036011,-2.210999 1.272034,-3.423996c1.953003,-10.03801 -13.123047,-21.462997 -26.939026,-24.102005c-2.125,-0.406006 -18.083008,-5.369003 -20.132019,-5.511993l0,-2.582001l25.942017,7.604996c16.455994,3.440994 28.140015,14.052994 26.215027,23.945999c-0.373047,1.916 -1.223999,3.667999 -2.484009,5.222992l0,0z" fill="url(#linearGradient4191)" id="path4171"/>
    <path d="m553.942017,258.653992l-3.874023,-1.153992c0.601013,-1.072021 1.036011,-2.210999 1.272034,-3.423996c1.953003,-10.03801 -13.123047,-21.462997 -26.939026,-24.102005c-2.125,-0.406006 -18.083008,-5.369003 -20.132019,-5.511993l0,-2.582001l25.942017,7.604996c16.455994,3.440994 28.140015,14.052994 26.215027,23.945999c-0.373047,1.916 -1.223999,3.667999 -2.484009,5.222992l0,0z" fill="url(#linearGradient4193)" id="path4173"/>
    <path d="m526.067993,249.408997l-2.481995,-1.310989c0.552979,-0.647003 1.004028,-1.358002 1.328003,-2.150009c2.684021,-6.552002 -6.004028,-16.349991 -15.028992,-20.009995c-0.289001,-0.117996 -1.014038,-0.470001 -1.905029,-0.927002l7.619995,2.166992c9.67804,4.730011 15.362,12.909012 12.862,19.014999c-0.511963,1.251007 -1.328003,2.330002 -2.393982,3.216003l0,0z" fill="url(#linearGradient4195)" id="path4175"/>
    <path d="m517.424011,247.171997l-2.481995,-1.311005c0.552979,-0.646988 1.003967,-1.357986 1.328979,-2.149994c2.682983,-6.552002 -6.003967,-16.350006 -15.029968,-20.009995c-0.289001,-0.118011 -1.014038,-0.471008 -1.905029,-0.927002l7.619995,2.166992c9.677979,4.730011 15.362976,12.909012 12.862,19.014999c-0.511963,1.251007 -1.328003,2.330002 -2.393982,3.216003l0,0z" fill="url(#linearGradient4197)" id="path4177"/>
    <path d="m135.509995,234.843002c5.192001,1.266998 9.695007,0.925995 12.394012,-3.623001l-1.561005,-11.203995c-4.304001,-3.864014 -8.608002,-3.098999 -12.912003,-0.097l2.078995,14.923996l0,0z" fill="url(#linearGradient4199)" id="path4179"/>
    <path d="m148.203995,232.800003c5.102005,0.757996 9.49501,0.358994 11.796005,-3.447998l-1.485992,-10.664001c-4.059006,-1.862 -8.127014,-3.261002 -12.289001,-0.09201l1.978989,14.20401l0,0z" fill="url(#linearGradient4201)" id="path4181"/>
    <path d="m240.105011,230.444c-20.944016,0 -41.001007,-1.119995 -59.532013,-3.169006l-2.289001,-0.253998l1.076004,-2.035004c4.177002,-7.927994 10.369003,-13.217987 18.194,-16.550995c7.826004,-3.332993 17.261993,-4.764999 28.229996,-5.281998c21.937988,-1.033005 50.054993,1.647003 83.634003,1.251999c31.088013,-0.365997 56.035004,-1.175995 76.082001,-1.487l0.704987,2.973999c-29.955994,14.822006 -84.112976,24.552002 -146.099976,24.552002zm0,-3.130005c57.074982,0 107.519989,-8.437988 137.785004,-21.108994c-18.751007,0.365005 -40.825012,1.005997 -68.433014,1.330002c-33.765991,0.397995 -61.962006,-2.286011 -83.516006,-1.270996c-10.776993,0.506989 -19.886993,1.943985 -27.173996,5.046997c-6.543991,2.787003 -11.571991,6.983002 -15.337006,13.087997c17.721008,1.867996 36.770004,2.914993 56.675018,2.914993z" stroke-width="5" fill-rule="nonzero" fill="#191919" opacity="0.9" id="path4183"/>
   </g>
  </g>
  <g transform="rotate(-90.312 323.116 310.613)" display="inline" id="svg_1">
   <g id="svg_2">
    <path d="m371.687988,165.998001c-0.944,0.005997 -2.954987,0.190994 -4.048981,0.587006l-2.19101,0.938995l5.419006,22.498001l-78.136993,0.177002c-1.525024,0.002991 -3.059998,-0.009003 -4.597015,-0.020004c-3.074982,-0.020996 -6.175995,-0.065002 -9.292999,-0.136993c-4.565002,-0.105011 -9.182983,-0.258011 -13.811981,-0.450012c-0.247009,-0.009995 -0.495026,-0.028992 -0.743011,-0.039001c-9.348007,-0.394989 -18.786011,-0.93399 -28.19101,-1.526001c-12.724991,-0.802994 -25.366989,-1.694992 -37.639999,-2.425995c-9.095001,-0.541992 -17.987,-0.988998 -26.528,-1.251999c-5.86499,-0.181 -11.55899,-0.285995 -17.05899,-0.253998c-2.702011,0.014999 -5.363998,0.057999 -7.962997,0.136993c-2.598007,0.078003 -5.246002,0.222 -7.923004,0.411011c-1.337997,0.093994 -2.678009,0.194 -4.029999,0.312988c-4.050003,0.355011 -8.167007,0.827011 -12.266006,1.369003c-0.006996,0.001007 -0.013,-0.000992 -0.019997,0c-2.737,0.362 -5.458,0.766998 -8.177002,1.193008c-2.720001,0.427002 -5.43,0.875 -8.099998,1.349991c-2.663002,0.473999 -5.302002,0.980011 -7.884003,1.487c-0.005997,0.001007 -0.013,-0.000992 -0.018997,0c-1.293999,0.253998 -2.548004,0.503998 -3.815002,0.763c-3.794998,0.777008 -7.471001,1.574997 -10.956001,2.367004c-0.005997,0.001999 -0.013,-0.001007 -0.018997,0c-2.327003,0.529007 -4.562202,1.048996 -6.710297,1.565002c-4.297005,1.031998 -8.210701,2.024994 -11.601204,2.914993c-5.085598,1.335007 -9.003899,2.459 -11.327198,3.130997c-1.548599,0.448013 -2.386803,0.70401 -2.386803,0.70401l-8.568699,2.347c-0.564999,0.155991 -1.113201,0.43399 -1.643398,0.821991c-0.180099,0.132004 -0.352001,0.27301 -0.528202,0.431c-0.6884,0.613007 -1.3466,1.421005 -1.975899,2.406006c-0.002899,0.003998 0.002899,0.014999 0,0.018997c-0.313202,0.492004 -0.640099,1.027008 -0.938999,1.604996c-0.002701,0.005005 0.002598,0.014008 0,0.019012c-0.299,0.577988 -0.595501,1.19899 -0.880402,1.858994c-0.0023,0.005005 0.0023,0.014008 0,0.018997c-2.2957,5.327011 -4.144402,13.229004 -5.5951,22.675003c-0.000999,0.005997 0.0009,0.013 0,0.018997c-0.022499,0.147003 -0.0364,0.303009 -0.058699,0.449997c-0.315901,2.086014 -0.621101,4.256012 -0.8999,6.476013c-0.0191,0.151001 -0.039801,0.296997 -0.058701,0.449997c-0.313999,2.530991 -0.592699,5.134995 -0.8608,7.804993c-0.0007,0.007004 0.000601,0.014008 0,0.020004c-0.133699,1.332001 -0.2687,2.688995 -0.3913,4.050003c-0.000599,0.005997 0.000601,0.013 0,0.018997c-0.122601,1.360992 -0.2404,2.723007 -0.3521,4.108994c-0.000599,0.006012 0.000502,0.013 0,0.019012c-0.223999,2.777985 -0.424599,5.600006 -0.606499,8.451996c-0.000401,0.006012 0.000399,0.013 0,0.019012c-0.546301,8.566986 -0.913801,17.396973 -1.115101,26.019989c-0.0002,0.005981 0.000101,0.013 0,0.018982c-0.1343,5.753021 -0.1957,11.402008 -0.1957,16.845001c0,0.606018 0.0172,1.229004 0.019501,1.83902c-0.0023,0.609985 -0.019501,1.233002 -0.019501,1.838989c0,5.442017 0.061399,11.091003 0.195601,16.843994c0.0002,0.007019 -0.000101,0.013 0,0.02002c0.201399,8.622986 0.568899,17.453003 1.115099,26.018982c0.000401,0.007019 -0.000399,0.013 0,0.02002c0.1819,2.850983 0.3825,5.673004 0.606501,8.450989c0.0005,0.006989 -0.0005,0.014008 0,0.019989c0.1117,1.38501 0.229599,2.747009 0.3521,4.108002c0.000599,0.007019 -0.0005,0.013 0,0.02002c0.1227,1.360992 0.257599,2.71698 0.3913,4.048981c0.000599,0.007019 -0.000601,0.014008 0,0.02002c0.268099,2.67099 0.546799,5.274994 0.8608,7.806c0.0189,0.151978 0.0396,0.298004 0.058699,0.449982c0.2789,2.218994 0.584002,4.390015 0.8999,6.475006c0.022301,0.14801 0.0362,0.304016 0.058701,0.450012c0.0009,0.006989 -0.0009,0.013977 0,0.019989c1.450798,9.445007 3.2995,17.347015 5.5952,22.674011c0.0023,0.005981 -0.002399,0.013977 0,0.019989c0.284901,0.660004 0.581299,1.279999 0.880299,1.858002c0.002602,0.005005 -0.002598,0.014984 0,0.019989c0.298901,0.576996 0.625801,1.113007 0.939003,1.604004c0.002899,0.003998 -0.0028,0.015015 0,0.019012c0.629398,0.984985 1.287598,1.794006 1.975899,2.406982c0.176201,0.157013 0.348099,0.298004 0.528301,0.430023c0.530098,0.388 1.0784,0.665985 1.643299,0.821991l8.568798,2.347992c0,0 0.8381,0.256012 2.3867,0.70401c2.323303,0.67099 6.2416,1.794983 11.327301,3.130005c3.390404,0.889984 7.3041,1.882996 11.601097,2.914978c2.148201,0.516022 4.3834,1.036011 6.710403,1.565002c0.005997,0.001007 0.013,-0.000977 0.018997,0c3.485001,0.792023 7.161003,1.589996 10.956001,2.367004c1.266998,0.26001 2.521004,0.509003 3.815002,0.763c0.005997,0.002014 0.013,-0.001007 0.018997,0c2.582001,0.507019 5.221001,1.013 7.884003,1.487c2.669998,0.475006 5.379997,0.924011 8.099998,1.350006c2.719002,0.425995 5.440002,0.830994 8.177002,1.192993c0.006996,0.001007 0.013,0 0.019997,0c4.098999,0.542999 8.216003,1.014008 12.266006,1.369995c1.35199,0.119019 2.692001,0.219025 4.029999,0.313019c2.677002,0.187988 5.324997,0.332001 7.923004,0.41098c2.598999,0.078003 5.260986,0.121002 7.962997,0.137024c5.5,0.030975 11.192993,-0.074005 17.05899,-0.255005c8.541,-0.263 17.432999,-0.710022 26.528,-1.252014c12.27301,-0.730988 24.915009,-1.622986 37.639999,-2.425995c9.404999,-0.59201 18.843002,-1.131012 28.19101,-1.526001c0.247986,-0.01001 0.496002,-0.027985 0.743011,-0.039001c4.628998,-0.19101 9.246979,-0.345001 13.811981,-0.449982c3.117004,-0.071014 6.218018,-0.115021 9.292999,-0.137024c1.537018,-0.009979 3.071991,-0.02298 4.597015,-0.018982l78.136993,0.175995l-5.419006,22.497986l2.19101,0.939026c1.093994,0.395996 3.10498,0.580994 4.048981,0.586975c0.532013,0.003021 1.098999,-0.04599 1.683014,-0.155975c0.194,-0.037018 0.389984,-0.08902 0.587006,-0.137024c0.190002,-0.048004 0.395996,-0.097992 0.587006,-0.156982c0.392975,-0.121002 0.790985,-0.264008 1.172974,-0.430023c1.141022,-0.496979 2.213013,-1.208984 2.994019,-2.073975c0.005981,-0.007019 0.013,-0.013 0.018982,-0.02002c0.391022,-0.436005 0.696014,-0.90799 0.920013,-1.427979l7.609985,-19.603027l68.824005,0.157013c0.468018,0.234009 0.924011,0.466003 1.389008,0.684998c1.86499,0.876007 3.700989,1.626007 5.536011,2.269012c0.915985,0.320984 1.826996,0.610992 2.738983,0.880005c3.192993,0.944 6.378021,1.597992 9.606018,2.034973c1.843994,0.25 3.709991,0.434021 5.595001,0.567017c0.942993,0.066986 1.899994,0.113007 2.855988,0.156982c1.914001,0.088013 3.842987,0.133026 5.829987,0.156006c3.973999,0.046997 8.126007,0 12.521027,0c6.516998,0 12.722015,-0.332001 18.644012,-0.977997c2.368958,-0.257996 4.690002,-0.561981 6.964966,-0.919006c4.549011,-0.714996 8.906982,-1.639984 13.087036,-2.738983c1.045959,-0.274994 2.088989,-0.563019 3.110962,-0.860992c3.067017,-0.894012 6.018005,-1.894012 8.882019,-2.993011c0.953979,-0.367004 1.903992,-0.72699 2.836975,-1.11499c1.864014,-0.778015 3.682007,-1.601013 5.458008,-2.464996c0.888,-0.432007 1.775024,-0.877014 2.640991,-1.331024c1.731995,-0.906982 3.421997,-1.86499 5.067017,-2.855988c0.822021,-0.494995 1.625,-1.01001 2.426025,-1.526001c4.002991,-2.57901 7.738953,-5.399994 11.208984,-8.471008c2.77301,-2.453979 5.38501,-5.057983 7.825989,-7.806c0.002991,-0.003998 -0.002991,-0.015991 0,-0.018982c0.606995,-0.684998 1.211975,-1.372009 1.799988,-2.074005c0.002991,-0.003998 -0.002991,-0.015991 0,-0.02002c0.587036,-0.700989 1.174011,-1.412994 1.741028,-2.131989c0.002991,-0.003998 -0.002991,-0.015991 0,-0.019989c1.705994,-2.165009 3.325989,-4.394012 4.85199,-6.710022c0.002991,-0.003998 -0.004028,-0.014984 0,-0.019989c0.505981,-0.769012 1.018982,-1.541992 1.505981,-2.328003c0.002991,-0.005005 -0.002991,-0.014008 0,-0.018982c1.465027,-2.365021 2.859009,-4.791016 4.147034,-7.297028c0.002991,-0.004974 -0.002014,-0.014984 0,-0.019989c0.427979,-0.832001 0.843994,-1.675995 1.252991,-2.523987c0.002014,-0.005005 -0.002991,-0.014008 0,-0.019012c0.40802,-0.846985 0.822998,-1.700989 1.211975,-2.562988c0.002991,-0.006012 -0.002014,-0.014008 0,-0.019012c0.781006,-1.730011 1.527039,-3.475983 2.231018,-5.263c0.002014,-0.005981 -0.002991,-0.014008 0,-0.019989c0.349976,-0.890015 0.684998,-1.795013 1.016968,-2.699005c0.002014,-0.006012 -0.001953,-0.014008 0,-0.019989c0.332031,-0.904999 0.665039,-1.820007 0.978027,-2.739014c0.312988,-0.917999 0.625,-1.846008 0.919983,-2.777985c0.002014,-0.006012 -0.001953,-0.014008 0,-0.019012c0.294006,-0.932007 0.585022,-1.873016 0.861023,-2.817993c0.000977,-0.006012 -0.002014,-0.013 0,-0.019012c0.275024,-0.945007 0.544006,-1.898987 0.802002,-2.855988c0.000977,-0.007019 -0.002014,-0.014008 0,-0.02002c0.775024,-2.885986 1.481995,-5.825989 2.093018,-8.822998l0,-0.019989c0.201965,-0.994995 0.382996,-2.006012 0.566956,-3.011993l0,-0.02002c1.299011,-7.085999 2.16803,-14.437988 2.602051,-22.048004c0.000977,-0.006989 0,-0.013 0,-0.019989c0.061951,-1.082001 0.112,-2.175995 0.156982,-3.266998c0,-0.006012 -0.001038,-0.013 0,-0.019012c0.088989,-2.189972 0.153992,-4.386993 0.175964,-6.612976c0,-0.006012 0,-0.013 0,-0.019012c0.01001,-1.117004 0.006042,-2.23999 0,-3.36499c0,-0.39801 -0.013977,-0.796021 -0.019958,-1.194c0.006958,-0.397003 0.019958,-0.795013 0.019958,-1.192993c0.006042,-1.125 0.01001,-2.249023 0,-3.365021c0,-0.006989 0,-0.013 0,-0.019989c-0.021973,-2.225006 -0.086975,-4.423004 -0.175964,-6.612c-0.001038,-0.007019 0,-0.013 0,-0.019989c-0.044983,-1.091003 -0.095032,-2.185028 -0.156982,-3.267029c0,-0.005981 0.000977,-0.013 0,-0.018982c-0.434021,-7.610992 -1.30304,-14.963013 -2.602051,-22.049011l0,-0.018982c-0.18396,-1.007019 -0.36499,-2.018005 -0.566956,-3.013l0,-0.019012c-0.611023,-2.997986 -1.317993,-5.937988 -2.093018,-8.824005c-0.002014,-0.005981 0.000977,-0.013 0,-0.018982c-0.257996,-0.958008 -0.526978,-1.911011 -0.802002,-2.856018c-0.002014,-0.006989 0.000977,-0.014008 0,-0.019989c-0.276001,-0.945007 -0.567017,-1.88501 -0.861023,-2.817017c-0.001953,-0.005981 0.002014,-0.013977 0,-0.019989c-0.294983,-0.931992 -0.606995,-1.858994 -0.919983,-2.778c-0.312988,-0.917999 -0.645996,-1.834 -0.978027,-2.738998c-0.001953,-0.005005 0.002014,-0.014008 0,-0.018997c-0.33197,-0.904999 -0.666992,-1.809006 -1.016968,-2.699997c-0.002991,-0.006012 0.002014,-0.014008 0,-0.020004c-0.703979,-1.787003 -1.450012,-3.533005 -2.231018,-5.262009c-0.002014,-0.00499 0.002991,-0.013992 0,-0.019989c-0.388977,-0.862 -0.803955,-1.715012 -1.211975,-2.562012c-0.002991,-0.005997 0.002014,-0.014999 0,-0.019989c-0.408997,-0.847 -0.825012,-1.692001 -1.252991,-2.524002c-0.002014,-0.005005 0.002991,-0.014008 0,-0.018997c-1.288025,-2.507004 -2.682007,-4.932007 -4.147034,-7.298004c-0.002991,-0.003998 0.002991,-0.014008 0,-0.018997c-0.487,-0.785004 -1,-1.559006 -1.505981,-2.328003c-0.004028,-0.005005 0.002991,-0.014999 0,-0.020004c-1.526001,-2.315994 -3.145996,-4.544998 -4.85199,-6.709991c-0.002991,-0.003998 0.002991,-0.016006 0,-0.018997c-0.567017,-0.719009 -1.153992,-1.431 -1.741028,-2.133011c-0.002991,-0.003998 0.002991,-0.015991 0,-0.018997c-0.588013,-0.701996 -1.192993,-1.389999 -1.799988,-2.074005c-0.002991,-0.003998 0.002991,-0.015991 0,-0.019989c-2.440979,-2.747009 -5.052979,-5.352005 -7.825989,-7.806c-3.470032,-3.070999 -7.205994,-5.891006 -11.208984,-8.471008c-0.801025,-0.515991 -1.604004,-1.029999 -2.426025,-1.526001c-1.64502,-0.98999 -3.335022,-1.94899 -5.067017,-2.856003c-0.865967,-0.452988 -1.752991,-0.897995 -2.640991,-1.329987c-1.776001,-0.865005 -3.593994,-1.688004 -5.458008,-2.465012c-0.932983,-0.388992 -1.882996,-0.748993 -2.836975,-1.11499c-2.864014,-1.100006 -5.815002,-2.098999 -8.882019,-2.994003c-1.021973,-0.298004 -2.065002,-0.585999 -3.110962,-0.860001c-4.180054,-1.100006 -8.538025,-2.024002 -13.087036,-2.738998c-2.274963,-0.358002 -4.596008,-0.662003 -6.964966,-0.919998c-5.921021,-0.646011 -12.127014,-0.979004 -18.644012,-0.979004c-4.39502,0 -8.547028,-0.046005 -12.521027,0c-1.985992,0.022995 -3.915985,0.069 -5.828979,0.156998c-0.957001,0.042999 -1.914001,0.089996 -2.856995,0.156006c-1.88501,0.132996 -3.75,0.317993 -5.595001,0.567993c-3.22702,0.436996 -6.413025,1.089996 -9.606018,2.033997c-0.911987,0.270004 -1.822998,0.560013 -2.738007,0.880005c-1.835999,0.643997 -3.671997,1.393997 -5.536987,2.270004c-0.464996,0.218002 -0.92099,0.451004 -1.389008,0.684998l-68.824005,0.156006l-7.609985,-19.603012c-0.222992,-0.518997 -0.528992,-0.990997 -0.920013,-1.427994c-0.005981,-0.005997 -0.013,-0.013 -0.018982,-0.018997c-0.781006,-0.865005 -1.852997,-1.576996 -2.993011,-2.074005c-0.382996,-0.166992 -0.781006,-0.309998 -1.173981,-0.429993c-0.19101,-0.059006 -0.397003,-0.110001 -0.587006,-0.156998c-0.197021,-0.049011 -0.393005,-0.100006 -0.587006,-0.137009c-0.584015,-0.110001 -1.151001,-0.160004 -1.683014,-0.156006l0,-0.000992z" stroke-width="14" stroke-miterlimit="4" stroke="#191919" fill-opacity="0.996078" fill="#000000" id="svg_3"/>
    <path d="m371.687988,165.998001c-0.944,0.005997 -2.954987,0.192001 -4.048981,0.587006l-2.19101,0.938995l5.419006,22.440002l-78.136993,0.175995c-48.807007,0.102997 -104.249008,-7.201996 -145.826004,-5.947998c-41.576004,1.255005 -95.234509,17.529999 -95.234509,17.529999l-8.568798,2.367004c-12.052,3.315002 -16.1007,60.955002 -16.1007,104.410995c0,0.696991 0.0166,1.411011 0.019501,2.113007c-0.002901,0.701996 -0.019501,1.415985 -0.019501,2.113007c0,43.455994 4.0487,101.095001 16.1007,104.41098l8.568798,2.367004c0,0 53.658504,16.274994 95.234509,17.528992c41.576996,1.255005 97.018997,-6.050995 145.826004,-5.946991l78.136993,0.175995l-5.419006,22.440002l2.19101,0.938995c1.093994,0.39502 3.10498,0.580994 4.048981,0.585999c0.532013,0.003998 1.098999,-0.04599 1.683014,-0.155975c0.194,-0.037018 0.389984,-0.088013 0.587006,-0.137024c0.190002,-0.046997 0.395996,-0.097992 0.587006,-0.156982c0.392975,-0.119995 0.790985,-0.264008 1.173981,-0.430023c1.140015,-0.495972 2.212006,-1.190979 2.993011,-2.053986c0.005981,-0.006989 0.013,-0.013 0.018982,-0.019989c0.391022,-0.436005 0.697021,-0.908997 0.920013,-1.428009l7.609985,-19.562988l68.824005,0.155975c14.963013,7.476013 28.492004,6.710022 46.072021,6.710022c83.418976,0 117.460968,-54.206024 117.067963,-126.068024c0,-0.487976 -0.011963,-0.97998 -0.019958,-1.46698c0.007996,-0.487 0.019958,-0.979004 0.019958,-1.46701c0.393005,-71.862 -33.648987,-126.069 -117.067963,-126.069c-17.580017,0 -31.109009,-0.765991 -46.072021,6.710999l-68.824005,0.156006l-7.609985,-19.563004c-0.222992,-0.518997 -0.528992,-0.992996 -0.920013,-1.429001c-0.005981,-0.005997 -0.013,-0.011993 -0.018982,-0.018997c-0.781006,-0.862991 -1.852997,-1.557999 -2.993011,-2.054001c-0.382996,-0.166 -0.781006,-0.309998 -1.173981,-0.431c-0.19101,-0.057999 -0.397003,-0.108994 -0.587006,-0.155991c-0.197021,-0.049011 -0.393005,-0.101013 -0.587006,-0.137009c-0.584015,-0.110001 -1.151001,-0.160004 -1.683014,-0.156998l0,0l0,0z" fill-opacity="0.996078" fill="#ca0000" id="svg_4"/>
    <path d="m240.104996,392.338013c-20.886993,0 -40.884995,1.126984 -59.356003,3.168976c16.065002,30.497009 61.343002,18.947021 128.688995,19.740021c31.105011,0.365997 56.057007,1.175995 76.082001,1.487c-29.523987,-14.608002 -83.592987,-24.395996 -145.414993,-24.395996z" fill-opacity="0.996078" fill="#262626" opacity="0.9" id="svg_5"/>
    <path d="m240.104996,392.338013c-2.006989,0 -3.996002,0.017975 -5.987,0.039001c0.513,10.123993 4.025009,18.941986 9.137009,24.317993c2.923996,-0.048004 5.944,-0.123016 9.037994,-0.216003c-5.363007,-5.127991 -9.136002,-13.915009 -9.841003,-24.140991c-0.78299,-0.003021 -1.560989,0 -2.347,0z" fill-opacity="0.996078" fill="#000000" opacity="0.5" id="svg_6"/>
    <path d="m608.640991,374.973999l-3.188965,0.371002c-13.488037,1.572998 -23.594055,16.264008 -24.591003,34.139008l-0.235046,4.460999l3.287048,-3.03302c9.94696,-9.190002 17.718994,-20.350983 23.416992,-33.02298l1.310974,-2.915009z" stroke-width="5" stroke-miterlimit="4" stroke="#191919" fill-rule="nonzero" fill="#212121" id="svg_7"/>
    <path d="m479.960999,381.859009c0,0 49.880981,-14.145996 65.970032,-20.022003c16.801941,-6.136017 61.888977,-24.506012 61.888977,-24.506012c0,0 -5.471985,26.587006 -19.083008,36.257996c-48.344971,34.351013 -145.670013,33.714996 -145.670013,33.714996" stroke-width="6" stroke-miterlimit="4" stroke-linejoin="round" stroke-linecap="round" stroke="#292929" fill="none" opacity="0.5" id="svg_8"/>
    <path d="m534.109985,368.924988l-2.778015,1.46701c0.620056,0.723999 1.124023,1.520996 1.487,2.407013c3.004028,7.334991 -6.720947,18.302002 -16.823975,22.399994c-0.323975,0.130981 -1.13501,0.526001 -2.132996,1.036987l8.530029,-2.425995c10.833984,-5.294983 17.19696,-14.450012 14.398987,-21.285004c-0.574036,-1.401001 -1.487,-2.608002 -2.68103,-3.600006l0,0z" fill="url(#linearGradient4149)" id="svg_9"/>
    <path d="m539.484009,366.131989l-2.778015,1.46701c0.619995,0.725006 1.124023,1.520996 1.487,2.407013c3.004028,7.334991 -6.721008,18.302979 -16.823975,22.399994c-0.324036,0.130981 -1.13501,0.526001 -2.132996,1.036987l8.529968,-2.425995c10.833984,-5.295013 17.197021,-14.450012 14.398987,-21.285004c-0.573975,-1.401001 -1.487,-2.608002 -2.680969,-3.600006l0,0z" fill="url(#linearGradient4203)" id="svg_10"/>
    <path d="m543.357971,365.247009l-2.777954,1.46698c0.618958,0.723999 1.123962,1.52002 1.487,2.406006c3.002991,7.335999 -6.722046,18.303009 -16.825012,22.401001c-0.323975,0.131012 -1.13501,0.526001 -2.132019,1.037018l8.528992,-2.426025c10.834045,-5.294983 17.197998,-14.449982 14.399048,-21.28598c-0.574036,-1.399994 -1.487,-2.608002 -2.680054,-3.598999l0,0z" fill="url(#linearGradient4155)" id="svg_11"/>
    <path d="m553.942017,362.571991l-3.874023,1.154022c0.601013,1.071991 1.036011,2.210999 1.272034,3.422974c1.953003,10.038025 -13.123047,21.463013 -26.939026,24.103027c-2.125,0.405975 -18.083008,5.368988 -20.131989,5.511993l0,2.582001l25.941986,-7.605011c16.455994,-3.44101 28.140015,-14.053009 26.215027,-23.945984c-0.373047,-1.917023 -1.223999,-3.667999 -2.484009,-5.223022l0,0z" fill="url(#linearGradient4205)" id="svg_12"/>
    <path d="m553.942017,362.571991l-3.874023,1.154022c0.601013,1.071991 1.036011,2.210999 1.272034,3.422974c1.953003,10.038025 -13.123047,21.463013 -26.939026,24.103027c-2.125,0.405975 -18.083008,5.368988 -20.131989,5.511993l0,2.582001l25.941986,-7.605011c16.455994,-3.44101 28.140015,-14.053009 26.215027,-23.945984c-0.373047,-1.917023 -1.223999,-3.667999 -2.484009,-5.223022l0,0z" fill="url(#linearGradient4207)" id="svg_13"/>
    <path d="m526.067993,371.816986l-2.481995,1.311005c0.552979,0.647003 1.004028,1.358002 1.328003,2.149017c2.684021,6.552979 -6.004028,16.350983 -15.028992,20.010986c-0.289001,0.117004 -1.014008,0.470001 -1.904999,0.925995l7.619965,-2.166992c9.67804,-4.730011 15.362,-12.908997 12.862,-19.014008c-0.511963,-1.251984 -1.328003,-2.329987 -2.393982,-3.216003l0,0z" fill="url(#linearGradient4209)" id="svg_14"/>
    <path d="m517.424011,374.053986l-2.481995,1.311005c0.552979,0.647003 1.003967,1.358002 1.328979,2.149017c2.682983,6.552979 -6.003998,16.350983 -15.029999,20.010986c-0.289001,0.117004 -1.014008,0.470001 -1.904999,0.925995l7.619995,-2.166992c9.677979,-4.730011 15.362976,-12.90799 12.862,-19.014008c-0.511963,-1.251984 -1.328003,-2.329987 -2.393982,-3.216003l0,0z" fill="url(#linearGradient4153)" id="svg_15"/>
    <path d="m135.509995,386.381989c5.192001,-1.265991 9.695007,-0.924988 12.394012,3.623016l-1.561005,11.20401c-4.304001,3.86499 -8.608002,3.099976 -12.912003,0.097992l2.078995,-14.925018l0,0z" fill="url(#linearGradient4211)" id="svg_16"/>
    <path d="m148.203995,388.424988c5.102005,-0.756989 9.49501,-0.358002 11.796005,3.449005l-1.485992,10.662994c-4.059006,1.863007 -8.127014,3.262024 -12.289001,0.093018l1.978989,-14.205017l0,0z" fill="url(#linearGradient4213)" id="svg_17"/>
    <path d="m240.104996,390.781006c-20.944,0 -41.000992,1.119995 -59.531998,3.169983l-2.289001,0.253998l1.076004,2.034027c4.177002,7.928986 10.369003,13.217987 18.194,16.550995c7.826004,3.332977 17.261993,4.765991 28.229996,5.281982c21.938004,1.03302 50.054993,-1.647003 83.634003,-1.251984c31.088013,0.365997 56.035004,1.177002 76.082001,1.487l0.704987,-2.972992c-29.955994,-14.822021 -84.112976,-24.553009 -146.099991,-24.553009zm0,3.130005c57.074997,0 107.520004,8.437988 137.785019,21.109985c-18.751007,-0.36499 -40.825012,-1.005981 -68.433014,-1.330994c-33.765991,-0.397003 -61.962006,2.286987 -83.516006,1.272003c-10.776993,-0.507996 -19.886993,-1.944 -27.173996,-5.048004c-6.543991,-2.786987 -11.571991,-6.983002 -15.337006,-13.088013c17.721008,-1.866974 36.770004,-2.914978 56.675003,-2.914978z" stroke-width="5" fill-rule="nonzero" fill="#191919" opacity="0.9" id="svg_18"/>
    <path d="m152.557999,237.171005l-48.673996,7.806c-16.997002,2.725998 -30.642403,30.533005 -31.927299,65.636002c1.284897,35.10199 14.930298,62.910004 31.927299,65.635986l48.673996,7.806c8.324005,0 15.024994,-6.700989 15.024994,-15.024994l0,-116.834c0,-8.324005 -6.700989,-15.024994 -15.024994,-15.024994l0,0z" stroke-width="5" stroke-miterlimit="4" stroke="#191919" fill-opacity="0.996078" fill="#262626" opacity="0.9" id="svg_19"/>
    <path d="m422.67099,215.748993c-1.858978,0 -3.690002,0.208008 -5.497986,0.606003c-0.006012,-0.005997 -0.013,-0.013 -0.019012,-0.018997l-39.967987,7.708008c-11.098999,4.133987 -20.03299,8.934998 -20.03299,20.03299l0,133.071991c0,11.098022 8.93399,15.89801 20.03299,20.03302l39.967987,7.708008c0.006012,-0.006012 0.013,-0.013 0.019012,-0.019012c1.807983,0.39801 3.639008,0.605988 5.497986,0.605988c28.419006,0 51.458008,-35.91098 51.529999,-94.863983c-0.071991,-58.953003 -23.110992,-94.864014 -51.529999,-94.864014l0,0z" stroke-width="5" stroke-miterlimit="4" stroke-dashoffset="0" stroke="#191919" fill-opacity="0.996078" fill="#262626" opacity="0.9" id="svg_20"/>
    <path d="m240.104996,228.888c-20.886993,0 -40.884995,-1.126999 -59.356003,-3.169006c16.065002,-30.496994 61.343002,-18.947998 128.688995,-19.73999c31.105011,-0.365997 56.057007,-1.177002 76.082001,-1.487c-29.523987,14.608002 -83.592987,24.395996 -145.414993,24.395996z" fill-opacity="0.996078" fill="#262626" opacity="0.9" id="svg_21"/>
    <path d="m240.104996,228.888c-2.006989,0 -3.996002,-0.018997 -5.987,-0.039001c0.513,-10.123993 4.025009,-18.942001 9.137009,-24.317993c2.923996,0.046997 5.944,0.123001 9.037994,0.214996c-5.363007,5.128998 -9.136002,13.916 -9.841003,24.141998c-0.78299,0.003006 -1.560989,0 -2.347,0z" fill-opacity="0.996078" fill="#000000" opacity="0.5" id="svg_22"/>
    <path d="m608.640991,246.251999l-3.188965,-0.371994c-13.488037,-1.572998 -23.594055,-16.263 -24.591003,-34.138l-0.235046,-4.460999l3.287048,3.031998c9.94696,9.190994 17.718994,20.350998 23.416992,33.024002l1.310974,2.914993z" stroke-width="5" stroke-miterlimit="4" stroke="#191919" fill-rule="nonzero" fill="#212121" id="svg_23"/>
    <path d="m479.960999,239.367004c0,0 49.880981,14.145996 65.970032,20.020996c16.801941,6.136993 61.888977,24.506989 61.888977,24.506989c0,0 -5.471985,-26.586975 -19.083008,-36.258987c-48.344971,-34.350006 -145.670013,-33.714005 -145.670013,-33.714005" stroke-width="6" stroke-miterlimit="4" stroke-linejoin="round" stroke-linecap="round" stroke="#292929" fill="none" opacity="0.5" id="svg_24"/>
    <path d="m534.109985,252.300995l-2.778015,-1.468002c0.620056,-0.723999 1.124023,-1.519989 1.487,-2.405991c3.004028,-7.335007 -6.720947,-18.303009 -16.823975,-22.400009c-0.323975,-0.130997 -1.13501,-0.526993 -2.132996,-1.036987l8.530029,2.425995c10.833984,5.294998 17.19696,14.449997 14.398987,21.285004c-0.574036,1.401001 -1.487,2.608002 -2.68103,3.599991l0,0z" fill="url(#linearGradient4185)" id="svg_25"/>
    <path d="m539.484009,255.093994l-2.778015,-1.467987c0.619995,-0.724014 1.124023,-1.520004 1.487,-2.406006c3.004028,-7.335007 -6.721008,-18.302994 -16.823975,-22.399994c-0.324036,-0.132004 -1.13501,-0.527008 -2.132996,-1.037003l8.529968,2.425995c10.833984,5.294006 17.197021,14.449997 14.398987,21.285004c-0.573975,1.401001 -1.487,2.608002 -2.680969,3.599991l0,0z" fill="url(#linearGradient4187)" id="svg_26"/>
    <path d="m543.357971,255.979004l-2.777954,-1.46701c0.618958,-0.724991 1.123962,-1.520996 1.487,-2.406998c3.002991,-7.334991 -6.722046,-18.302002 -16.825012,-22.399994c-0.323975,-0.130997 -1.13501,-0.526001 -2.132019,-1.037003l8.528992,2.425995c10.834045,5.295013 17.197998,14.450012 14.399048,21.285004c-0.574036,1.401001 -1.487,2.608002 -2.680054,3.600006l0,0z" fill="url(#linearGradient4189)" id="svg_27"/>
    <path d="m553.942017,258.653992l-3.874023,-1.153992c0.601013,-1.071991 1.036011,-2.210999 1.272034,-3.423996c1.953003,-10.03801 -13.123047,-21.462997 -26.939026,-24.102005c-2.125,-0.406006 -18.083008,-5.369003 -20.131989,-5.511993l0,-2.582001l25.941986,7.604996c16.455994,3.440994 28.140015,14.052994 26.215027,23.945999c-0.373047,1.916 -1.223999,3.667999 -2.484009,5.222992l0,0z" fill="url(#linearGradient4191)" id="svg_28"/>
    <path d="m553.942017,258.653992l-3.874023,-1.153992c0.601013,-1.071991 1.036011,-2.210999 1.272034,-3.423996c1.953003,-10.03801 -13.123047,-21.462997 -26.939026,-24.102005c-2.125,-0.406006 -18.083008,-5.369003 -20.131989,-5.511993l0,-2.582001l25.941986,7.604996c16.455994,3.440994 28.140015,14.052994 26.215027,23.945999c-0.373047,1.916 -1.223999,3.667999 -2.484009,5.222992l0,0z" fill="url(#linearGradient4193)" id="svg_29"/>
    <path d="m526.067993,249.408997l-2.481995,-1.310989c0.552979,-0.647003 1.004028,-1.358002 1.328003,-2.150009c2.684021,-6.552002 -6.004028,-16.349991 -15.028992,-20.009995c-0.289001,-0.117996 -1.014008,-0.470001 -1.904999,-0.927002l7.619965,2.166992c9.67804,4.730011 15.362,12.909012 12.862,19.014999c-0.511963,1.251007 -1.328003,2.330002 -2.393982,3.216003l0,0z" fill="url(#linearGradient4195)" id="svg_30"/>
    <path d="m517.424011,247.171997l-2.481995,-1.311005c0.552979,-0.646988 1.003967,-1.357986 1.328979,-2.149994c2.682983,-6.552002 -6.003998,-16.350006 -15.029999,-20.009995c-0.289001,-0.118011 -1.014008,-0.471008 -1.904999,-0.927002l7.619995,2.166992c9.677979,4.730011 15.362976,12.909012 12.862,19.014999c-0.511963,1.251007 -1.328003,2.330002 -2.393982,3.216003l0,0z" fill="url(#linearGradient4197)" id="svg_31"/>
    <path d="m135.509995,234.843002c5.192001,1.266998 9.695007,0.925995 12.394012,-3.623001l-1.561005,-11.203995c-4.304001,-3.864014 -8.608002,-3.098999 -12.912003,-0.097l2.078995,14.923996l0,0z" fill="url(#linearGradient4199)" id="svg_32"/>
    <path d="m148.203995,232.800003c5.102005,0.757996 9.49501,0.358994 11.796005,-3.447998l-1.485992,-10.664001c-4.059006,-1.862 -8.127014,-3.261002 -12.289001,-0.09201l1.978989,14.20401l0,0z" fill="url(#linearGradient4201)" id="svg_33"/>
    <path d="m240.104996,230.444c-20.944,0 -41.000992,-1.119995 -59.531998,-3.169006l-2.289001,-0.253998l1.076004,-2.035004c4.177002,-7.927994 10.369003,-13.217987 18.194,-16.550995c7.826004,-3.332993 17.261993,-4.764999 28.229996,-5.281998c21.938004,-1.033005 50.054993,1.647003 83.634003,1.251999c31.088013,-0.365997 56.035004,-1.175995 76.082001,-1.487l0.704987,2.973999c-29.955994,14.822006 -84.112976,24.552002 -146.099991,24.552002zm0,-3.130005c57.074997,0 107.520004,-8.437988 137.785019,-21.108994c-18.751007,0.365005 -40.825012,1.005997 -68.433014,1.330002c-33.765991,0.397995 -61.962006,-2.286011 -83.516006,-1.270996c-10.776993,0.506989 -19.886993,1.943985 -27.173996,5.046997c-6.543991,2.787003 -11.571991,6.983002 -15.337006,13.087997c17.721008,1.867996 36.770004,2.914993 56.675003,2.914993z" stroke-width="5" fill-rule="nonzero" fill="#191919" opacity="0.9" id="svg_34"/>
   </g>
  </g>
 </g>
</svg>